// Number 3D OBJECTS:
// ^^^^^^^^^^^^^^^^^^
6

// Obj3D_ID, MediaCode (0=Iso3D,1=LossyIso3D,2=PEC,3=Aniso3D,4=LossyAniso3D,5=SurfaceImp)
// ^^^^^^^^^^^^^^^^^^^^^^^^^^^^^^^^^^^^^^^^^^^^^^^^^^^^^^^^^^^^^^^^^^^^^^^^^^^^^^^^^^^^^^
0 0
>> Material name:
Vacuum

1 1
>> Material name:
FR-4 (lossy)

2 0
>> Material name:
air_0

3 2

4 2

5 2

// Number 2D OBJECTS:
// ^^^^^^^^^^^^^^^^^^
45

// Obj2D_ID, BCCode (0=Reg,1=PEC,2=PMC,3=RHO,4=OHM,5=PORT,6=OPEN,7=EXPANDEDOPEN,8=PERIODIC,9=TANGENTIAL,10=NORMAL):
// ^^^^^^^^^^^^^^^^^^^^^^^^^^^^^^^^^^^^^^^^^^^^^^^^^^^^^^^^^^^^^^^^^^^^^^^^^^^^^^^^^^^^^^^^^^^^^^^^^^^^^^^^^^^^^^^^
0 0

1 5
1

2 0

3 0

4 0

5 0

6 0

7 0

8 0

9 0

10 0

11 0

12 6

13 6

14 6

15 6

16 6

17 7

18 7

19 1

20 1

21 1

22 1

23 1

24 1

25 1

26 1

27 1

28 0

29 1

30 1

31 0

32 1

33 6

34 0

35 0

36 0

37 1

38 6

39 1

40 1

41 1

42 1

43 1

44 1

// Number 1D OBJECTS:
// ^^^^^^^^^^^^^^^^^^
1

// Obj1D_ID, BCCode (0=Reg,1=PEC,2=PMC,3=PORT,4=Lumped):
// ^^^^^^^^^^^^^^^^^^^^^^^^^^^^^^^^^^^^^^^^^^^^^^^^^^^^^
0 0

