// Number of object-id's
6

// List object-id's with types (0=solid, 1=background, 2=sheet, 3=wire, 4=portwire, 5=portelement, 6=coil, 7=lumpedelement, 8=lumpedwire, 9=current path, 10=voltage path):
component1:dielectric_FR4
0
air_0:brick
1
component1:solid1
0
component1:filter
0
component1:Ground_Plane
0
Folder1:element1
2

// Number of 0D groups with object-id
0

// 0D Groupd-id, object-id

// Number of 1D groups with object-id
0

// 1D Groupd-id, object-id

// Number of 2D groups with object-id
43

// 2D Groupd-id, object-id from, object-id to
2 2 1 -1 -1 -1 -1
3 2 1 -1 -1 -1 -1
4 2 2 -1 -1 -1 6
5 2 2 -1 -1 -1 6
6 2 1 -1 -1 -1 6
7 2 -1 -1 -1 -1 -1
8 2 -1 -1 -1 -1 -1
9 2 1 -1 -1 -1 -1
10 1 -1 -1 -1 -1 -1
11 2 -1 -1 -1 -1 -1
12 2 -1 -1 -1 -1 -1
13 2 -1 -1 -1 -1 -1
14 2 -1 -1 -1 -1 -1
15 2 -1 -1 -1 -1 -1
16 2 -1 -1 -1 -1 -1
17 2 -1 -1 -1 -1 -1
18 2 -1 -1 -1 -1 -1
19 5 2 -1 -1 -1 -1
20 5 -1 -1 -1 -1 -1
21 5 -1 -1 -1 -1 -1
22 5 -1 -1 -1 -1 -1
23 5 2 -1 -1 -1 -1
24 4 2 -1 -1 -1 -1
25 4 2 -1 -1 -1 -1
26 4 2 -1 -1 -1 -1
27 4 -1 -1 -1 -1 -1
28 2 -1 -1 -1 -1 -1
29 4 2 -1 -1 -1 -1
30 4 2 -1 -1 -1 -1
31 2 1 -1 -1 -1 -1
32 4 1 -1 -1 -1 -1
33 1 -1 -1 -1 -1 -1
34 2 1 -1 -1 -1 -1
35 2 1 -1 -1 -1 6
36 2 1 -1 -1 -1 -1
37 5 1 -1 -1 -1 -1
38 1 -1 -1 -1 -1 -1
39 3 2 -1 -1 -1 -1
40 4 3 -1 -1 -1 -1
41 3 2 -1 -1 -1 -1
42 3 2 -1 -1 -1 6
43 3 2 -1 -1 -1 -1
44 3 1 -1 -1 -1 -1

// Number of 3D groups with object-id
5

// 3D Groupd-id, object-id
1 1
2 2
3 3
4 4
5 5

