refinementinfo

progressstart 0

progressstop 100

progresstext "Mesh refinement"

reftype edgesplit

refine edgeswr
52 1305 0.8
61 1708 0.8
88 2368 0.8
973 1711 0.72
1158 3310 0.8
120 1713 0.61
977 1713 0.41
121 2370 0.7000000000000001
978 2371 0.58
978 1308 0.34
979 3313 0.48
123 1714 0.49
980 1714 0.41
980 2372 0.46
982 2373 0.64
126 2373 0.49
126 1717 0.48
983 1717 0.5
983 3316 0.27
127 3317 0.78
2374 3317 0.59
984 2374 0.43
1159 2375 0.64
128 3319 0.59
1718 3320 0.5
130 3324 0.5700000000000001
987 3326 0.65
1311 2380 0.36
132 3331 0.45
2382 3333 0.71
131 2382 0.5700000000000001
990 2383 0.46
990 1721 0.59
13 2384 0.36
16 2385 0.44
992 1723 0.61
135 2387 0.49
136 3343 0.6900000000000001
995 2390 0.5700000000000001
137 1724 0.37
139 1725 0.42
139 1726 0.54
998 1726 0.48
999 1315 0.66
17 2392 0.25
142 2393 0.51
1001 3350 0.63
1002 2395 0.42
1002 3353 0.63
142 2396 0.63
144 2397 0.52
1316 3357 0.59
146 1729 0.39
1005 1729 0.36
1005 3361 0.59
145 3362 0.49
1318 3367 0.5700000000000001
1319 3369 0.71
1160 3374 0.52
1008 3377 0.44
1008 1734 0.5
1322 1734 0.5
1322 1735 0.5
1161 1735 0.5
1161 1736 0.5
1323 1736 0.5
1324 1738 0.5
1324 1739 0.5
1162 1739 0.5
1325 1740 0.5
1325 1741 0.5
1009 1741 0.5
1009 1742 0.5
1326 1742 0.5
1326 1743 0.5
1163 1743 0.5
1327 1744 0.5
1327 1745 0.5
39 1745 0.55
1328 1747 0.5
1164 1747 0.5
1164 1748 0.5
1329 1748 0.5
1329 1749 0.5
1010 1749 0.5
1010 1750 0.5
1330 1750 0.55
1330 3378 0.51
1165 3380 0.53
1331 3381 0.5700000000000001
1752 3382 0.5600000000000001
1332 1753 0.5
1332 1754 0.5
1166 1755 0.5
1333 1755 0.5
1333 1756 0.5
1011 1756 0.5
1011 1757 0.5
1334 1757 0.5
1334 1758 0.5
1167 1759 0.5
1335 1759 0.5
1335 1760 0.5
1761 3383 0.7000000000000001
1012 1761 0.5
1762 3385 0.68
1168 2405 0.59
1763 3387 0.54
1336 3388 0.6
150 2407 0.5
1337 2407 0.51
1337 1765 0.55
1169 2408 0.45
1169 1338 0.64
1338 2409 0.5
1013 3390 0.5700000000000001
2410 3392 0.51
1339 3393 0.55
40 1768 0.64
2412 3397 0.5700000000000001
2413 3401 0.49
1341 3401 0.35
2414 3402 0.53
1771 2414 0.46
1771 2415 0.49
151 2415 0.5
1772 3404 0.49
1773 3405 0.47
1773 2417 0.41
1172 1774 0.6
1014 1775 0.5
1243 7 0.26
4114 16 0.8
16 2428 0.19
3422 17 0.79
2431 17 0.74
17 2432 0.2
297 19 0.2
1745 40 0.28
41 2435 0.22
41 2437 0.19
41 1797 0.22
41 2438 0.21
42 1706 0.2
43 1358 0.23
43 4116 0.21
44 3097 0.2
1807 45 0.8
45 2443 0.21
46 1819 0.23
46 2450 0.17
46 2452 0.21
46 2453 0.2
66 61 0.21
66 394 0.2
66 308 0.2
1824 120 0.78
120 2459 0.17
120 2461 0.19
120 1826 0.19
121 2462 0.21
121 2464 0.2
121 2463 0.22
121 2465 0.19
121 2466 0.14
121 4539 0.14
121 4538 0.13
2998 122 0.79
122 2467 0.21
122 2470 0.2
122 2500 0.22
122 2469 0.19
122 2471 0.23
123 2472 0.18
123 2473 0.22
123 1848 0.2
2476 124 0.84
124 2477 0.16
124 2479 0.16
124 3470 0.22
124 2481 0.19
3101 125 0.8
3102 125 0.8200000000000001
125 2482 0.16
125 3473 0.23
125 2483 0.2
125 3896 0.16
125 1859 0.21
126 2486 0.15
126 2487 0.19
126 2514 0.22
1843 127 0.84
127 1844 0.18
127 1845 0.18
127 2491 0.23
4538 128 0.88
128 2497 0.18
128 4138 0.13
128 1846 0.2
129 2500 0.21
1847 129 0.79
1848 130 0.8100000000000001
130 3489 0.22
130 2503 0.19
130 3491 0.19
2507 131 0.8100000000000001
1859 132 0.8
3896 132 0.8
132 1860 0.2
132 1863 0.2
2514 133 0.79
3505 133 0.79
133 3506 0.22
133 2488 0.2
2518 134 0.77
134 1866 0.23
134 1876 0.22
134 2519 0.22
1393 135 0.9
135 2522 0.17
135 2524 0.19
135 2525 0.2
135 2526 0.2
135 2527 0.21
136 1869 0.18
136 2531 0.16
136 3514 0.21
137 1883 0.18
137 2536 0.2
137 2537 0.22
138 2539 0.17
138 2540 0.16
139 1729 0.48
139 3117 0.19
139 2542 0.22
139 2541 0.18
139 2571 0.19
139 1872 0.16
2275 140 0.79
140 1874 0.21
3527 141 0.78
141 2548 0.21
1876 141 0.78
141 2550 0.17
2552 142 0.8
2554 142 0.8100000000000001
142 1879 0.18
142 1881 0.2
2561 143 0.8200000000000001
143 3534 0.18
144 1883 0.18
144 4437 0.2
2568 145 0.8
145 2277 0.2
145 2279 0.33
145 1884 0.16
145 1885 0.18
1886 146 0.79
3541 146 0.8
2571 146 0.8100000000000001
146 1889 0.21
150 148 0.5
148 1896 0.22
148 1894 0.2
148 2581 0.18
151 149 0.5
149 1899 0.19
149 1894 0.21
149 1896 0.23
1737 150 0.5
1738 150 0.39
150 1902 0.19
150 2584 0.23
150 2578 0.22
150 1904 0.2
150 2585 0.21
150 2577 0.18
150 1918 0.2
150 2581 0.22
150 2580 0.2
150 2587 0.23
150 1905 0.21
1760 151 0.54
151 1746 0.48
151 3552 0.18
151 2593 0.22
151 1901 0.21
151 1918 0.2
151 2587 0.21
153 375 0.2
1052 158 0.2
167 172 0.8
1035 167 0.2
172 168 0.2
172 1034 0.8
172 357 0.2
172 1101 0.8
179 181 0.8
204 179 0.2
1269 181 0.2
181 1126 0.8
181 374 0.2
196 183 0.23
183 331 0.2
183 377 0.2
188 184 0.2
189 184 0.2
1072 188 0.2
188 205 0.8
188 1145 0.2
192 370 0.28
195 333 0.2
195 368 0.2
196 198 0.2
196 202 0.2
198 333 0.32
198 380 0.68
1051 203 0.2
1106 204 0.2
205 2629 0.2
206 217 0.54
2638 206 0.5600000000000001
206 1069 0.31
208 247 0.8
3620 208 0.2
247 215 0.2
241 216 0.26
3454 217 0.6
217 2636 0.51
2663 218 0.2
220 237 0.8
234 222 0.2
2643 227 0.5
227 1262 0.66
227 1111 0.77
1130 229 0.2
230 1130 0.8
232 1934 0.6900000000000001
234 1507 0.8
2687 234 0.2
3594 234 0.2
260 234 0.2
235 2648 0.8
255 238 0.2
251 3133 0.8
253 1964 0.78
1948 253 0.34
1941 256 0.29
2658 256 0.22
260 2849 0.8
1977 261 0.2
1958 263 0.41
266 297 0.8
266 360 0.8
295 314 0.8
297 1145 0.2
311 310 0.8
312 2695 0.8
315 312 0.2
314 2695 0.8
314 347 0.8
314 2696 0.8
321 323 0.24
321 2699 0.35
321 360 0.8
323 364 0.79
327 362 0.8
334 329 0.6900000000000001
332 329 0.68
329 1246 0.8
329 1195 0.8
330 355 0.8
330 366 0.8
331 453 0.8
332 364 0.75
333 381 0.71
333 1537 0.8
334 370 0.8
336 366 0.8
336 1119 0.8
342 1126 0.32
343 3371 0.78
344 507 0.2
346 1017 0.8
346 462 0.2
348 475 0.8
348 1017 0.2
350 475 0.8
350 822 0.2
354 1124 0.8
358 363 0.2
360 2619 0.25
364 1997 0.8
372 380 0.8
374 1120 0.8
374 1051 0.8
375 1246 0.8
375 1245 0.8
375 2609 0.8
380 1542 0.8
380 2627 0.8
380 1245 0.67
382 1034 0.79
458 1125 0.2
507 1129 0.2
822 864 0.2
864 1133 0.8
3425 971 0.2
2720 972 0.8100000000000001
972 2721 0.2
973 3696 0.21
2012 973 0.84
4213 973 0.62
973 1990 0.18
974 2886 0.21
975 2727 0.21
976 2374 0.78
976 2043 0.22
976 2732 0.21
976 2730 0.2
977 2734 0.2
978 2736 0.22
978 2737 0.18
978 2738 0.23
3722 979 0.77
3721 979 0.8
979 2739 0.18
979 2740 0.18
979 2741 0.23
979 3727 0.23
979 3894 0.14
2742 980 0.8
980 2743 0.2
980 2052 0.21
980 2744 0.21
981 3332 0.8
2745 981 0.78
981 2031 0.19
981 2748 0.22
981 3735 0.23
981 2055 0.2
982 1721 0.75
1430 982 0.8200000000000001
2033 982 0.8200000000000001
982 2035 0.17
982 2750 0.15
982 2057 0.16
983 2716 0.23
983 2751 0.2
2043 984 0.79
984 1057 0.2
984 2757 0.17
984 2756 0.2
984 2755 0.22
2761 985 0.8300000000000001
985 2675 0.11
985 2762 0.2
985 2763 0.2
986 2048 0.16
986 2768 0.21
2769 987 0.8
2052 988 0.8
988 2774 0.18
988 2775 0.2
989 3762 0.22
989 2778 0.2
990 2781 0.22
2057 990 0.85
2782 990 0.8100000000000001
990 2784 0.2
990 1942 0.19
2785 991 0.79
2062 991 0.79
991 2786 0.23
991 2787 0.19
992 2788 0.16
992 2789 0.16
992 2821 0.2
993 2795 0.18
993 2792 0.22
993 2796 0.17
993 2793 0.18
3353 994 0.2
994 2797 0.18
994 2801 0.23
994 2803 0.17
994 2799 0.2
995 2804 0.19
995 2807 0.22
995 2809 0.2
995 2071 0.18
996 2073 0.21
996 2076 0.18
996 2078 0.19
3361 997 0.2
2812 997 0.84
997 2847 0.19
997 2846 0.21
997 2813 0.2
998 3795 0.66
998 2850 0.22
998 3798 0.23
998 2816 0.19
999 2086 0.2
2276 999 0.8100000000000001
999 2104 0.22
999 2004 0.19
999 2007 0.16
1000 2819 0.22
2820 1000 0.8
2821 1000 0.8
1000 2822 0.19
2823 1001 0.8
1001 2825 0.18
1001 3814 0.22
1001 1945 0.18
1002 3816 0.21
1002 2832 0.21
1002 3912 0.19
1003 2842 0.19
1003 2806 0.21
1003 2805 0.19
2843 1004 0.78
2096 1004 0.74
1725 1005 0.7000000000000001
2845 1005 0.79
2846 1005 0.79
1005 2847 0.19
1005 2100 0.21
2848 1006 0.8200000000000001
1006 2102 0.19
2850 1006 0.78
2103 1007 0.8200000000000001
1007 3845 0.22
1007 3846 0.23
1168 1008 0.8
1008 2853 0.19
1009 3390 0.5
1766 1009 0.5
1009 3852 0.2
2117 1010 0.8100000000000001
1654 1010 0.8
2417 1010 0.5
1011 1770 0.5
1011 4387 0.2
1012 1732 0.5
3373 1012 0.5
1012 2881 0.22
1012 2867 0.22
1013 1742 0.5
1013 2208 0.22
1013 2870 0.17
1013 2868 0.2
1013 4302 0.18
1013 3230 0.2
1014 3380 0.5
1014 2315 0.23
1014 2881 0.21
1014 2878 0.23
1014 2168 0.22
1014 2876 0.18
1014 2879 0.22
1017 1779 0.8
2043 1033 0.2
1034 1254 0.8
1037 2043 0.8
2104 1051 0.2
3481 1054 0.2
1056 1845 0.67
1057 3318 0.78
1057 1159 0.8
1057 1965 0.21
1058 3311 0.8300000000000001
1061 1310 0.79
2377 1061 0.28
2596 1061 0.8
1061 3322 0.79
1061 1308 0.78
1311 1062 0.2
3562 1062 0.8
1062 3723 0.25
1064 1848 0.8
1066 2052 0.8
1066 2601 0.2
3896 1067 0.2
1859 1067 0.2
2057 1067 0.2
1068 2894 0.8
1860 1068 0.2
2056 1068 0.2
2057 1069 0.2
1074 3351 0.88
1078 3353 0.8
1078 2831 0.61
1078 1880 0.2
1078 1944 0.2
1078 1419 0.2
1078 2396 0.8
1078 2658 0.2
1078 2659 0.2
1078 3906 0.74
2563 1080 0.24
1082 3352 0.88
1883 1084 0.2
4260 1084 0.2
1084 2096 0.8
1085 2283 0.8
1085 1537 0.2
1086 3358 0.8300000000000001
1087 3366 0.85
3369 1089 0.2
1095 1734 0.8
1657 1104 0.2
1104 1258 0.8
1117 1125 0.2
1243 1124 0.2
1130 2644 0.74
1137 2431 0.8
1158 1792 0.22
2915 1158 0.78
1158 2043 0.22
1158 1994 0.16
1158 2884 0.17
2138 1159 0.72
1159 2043 0.2
1159 1800 0.21
2916 1159 0.8
1160 2918 0.22
1160 3384 0.5
1161 2921 0.22
1161 1336 0.5
1161 2163 0.18
2923 1162 0.77
1162 1169 0.5
1162 2408 0.5
1765 1162 0.5
1162 2155 0.23
1163 2925 0.2
2410 1163 0.5
1163 3392 0.5
1163 2926 0.21
1163 2161 0.21
1163 2160 0.17
1164 3405 0.5
1342 1164 0.5
1164 2163 0.18
1164 2922 0.23
1164 3177 0.2
1164 3093 0.2
3406 1165 0.5
1166 2936 0.2
2937 1166 0.77
1166 3397 0.5
2412 1166 0.5
1166 2939 0.23
1166 2926 0.2
1166 2942 0.2
1166 2941 0.22
1167 2944 0.23
1167 2414 0.5
1341 1167 0.5
3402 1167 0.5
1167 2946 0.22
3377 1168 0.5
1168 2973 0.22
1168 2952 0.2
1168 2949 0.22
1168 2218 0.21
1169 1740 0.5
1169 3182 0.21
1169 2190 0.2
1169 4294 0.17
1169 2192 0.22
1169 2955 0.21
1169 2954 0.22
1743 1170 0.5
1326 1170 0.5
1170 2956 0.19
1170 2957 0.19
1170 3972 0.23
1170 2197 0.19
1170 2208 0.22
1170 2134 0.19
1756 1171 0.5
1171 1333 0.5
1171 2208 0.2
1171 2960 0.18
1171 2962 0.2
1171 2964 0.22
1171 2961 0.23
1330 1172 0.2
1172 1750 0.5
1172 3982 0.21
1172 2966 0.19
1172 2973 0.2
1172 2972 0.19
1172 2971 0.19
1172 2218 0.22
1172 2974 0.22
1172 3983 0.23
1172 2311 0.18
1172 2967 0.17
1172 2965 0.18
1172 2968 0.2
1172 2969 0.19
1172 2970 0.22
1175 1243 0.29
1176 2978 0.8
1176 2221 0.8
3567 1270 0.8
2467 1308 0.79
1308 2738 0.23
2380 1309 0.2
1309 2998 0.21
1309 2741 0.23
1309 2470 0.2
1309 3001 0.18
1309 2471 0.23
1309 3002 0.21
1309 2468 0.17
3003 1310 0.79
3008 1311 0.8
2073 1312 0.79
1312 2271 0.18
1312 2076 0.18
1313 2812 0.16
1313 4001 0.19
1313 2274 0.15
1313 2846 0.21
1314 2275 0.21
2276 1314 0.8100000000000001
1314 2004 0.19
1314 1874 0.21
1315 3367 0.8
2086 1315 0.8
1315 2140 0.17
1315 2104 0.22
1315 2008 0.19
1316 4009 0.18
2277 1316 0.78
1316 4011 0.21
1318 1806 0.2
2885 1318 0.78
1318 3012 0.2
1319 3015 0.23
1319 3017 0.2
1319 1979 0.36
1320 1761 0.5
3019 1321 0.79
3385 1321 0.5
1321 3022 0.22
1322 3023 0.22
3386 1322 0.5
1322 3264 0.22
3222 1323 0.78
1323 3024 0.2
1764 1323 0.5
3389 1323 0.5
1323 2238 0.18
1323 2248 0.15
1323 4041 0.2
1323 2291 0.14
1323 3027 0.2
1324 1337 0.5
1324 3030 0.22
1324 2246 0.22
1325 2409 0.5
1338 1325 0.5
1325 3031 0.19
1325 3058 0.2
1325 2296 0.21
1326 2299 0.19
1326 3391 0.5
1326 2316 0.22
1327 3034 0.23
1327 2255 0.18
1339 1327 0.5
1327 3394 0.5
1327 3035 0.2
1328 1772 0.5
1328 3403 0.5
1328 2238 0.19
1328 3037 0.23
3039 1329 0.8
1329 1773 0.5
1330 3043 0.22
1330 3042 0.23
1774 1330 0.8
1331 3048 0.18
1331 1775 0.5
1331 3050 0.21
1331 3293 0.22
1332 3052 0.22
2411 1332 0.5
1332 3054 0.19
1332 3055 0.19
1332 3194 0.5
1332 2995 0.19
1333 3056 0.22
3247 1333 0.8100000000000001
1333 3398 0.5
1333 3979 0.17
1333 2964 0.2
2413 1334 0.5
3401 1334 0.5
1334 3059 0.21
1334 3058 0.2
1334 2296 0.22
1334 3060 0.19
1334 3061 0.2
2985 1335 0.8200000000000001
1771 1335 0.5
2415 1335 0.46
1335 2245 0.21
1335 4392 0.15
1335 3256 0.22
1335 3282 0.19
1336 1736 0.5
1336 3062 0.21
1336 3065 0.2
1336 3220 0.18
1739 1337 0.5
1337 3029 0.16
1337 2982 0.19
1337 3070 0.21
1337 3069 0.23
1337 3068 0.22
1337 3072 0.23
1338 1740 0.5
1338 3073 0.17
1338 3074 0.19
1338 4081 0.23
1338 4045 0.19
1338 3075 0.21
1338 2297 0.21
1338 2190 0.2
1744 1339 0.5
1339 3078 0.22
1339 4088 0.23
1754 1340 0.5
1340 3080 0.19
1340 3246 0.2
1340 3079 0.22
1340 2994 0.22
1758 1341 0.5
1341 3963 0.18
1341 4098 0.22
1341 2190 0.17
1342 3090 0.22
1342 3091 0.2
1358 1745 0.85
3433 1364 0.2
2138 1364 0.2
3313 1386 0.16
1403 3321 0.8
1407 3319 0.86
1421 3331 0.8
1421 1941 0.2
1427 3338 0.84
1716 1430 0.18
1438 3344 0.88
1451 3355 0.85
1458 1979 0.8
1459 3364 0.85
1496 2760 0.8
1496 4135 0.8
1504 3337 0.84
1510 3332 0.8300000000000001
1523 3359 0.8
1540 2708 0.2
1593 2858 0.8
1611 4366 0.2
4204 1634 0.2
1637 2932 0.8
1653 3177 0.8
1655 1748 0.86
1655 3405 0.8200000000000001
1701 2930 0.8
1711 1990 0.2
1711 3431 0.2
1711 3432 0.22
1712 3210 0.23
1712 2441 0.22
1712 4219 0.19
1712 2886 0.21
1712 3211 0.22
1712 3702 0.23
1713 3320 0.75
1824 1713 0.78
4223 1713 0.8100000000000001
1713 2734 0.22
1713 1826 0.19
1713 3134 0.17
1713 3133 0.22
1714 2743 0.2
1714 4227 0.21
1714 2472 0.18
1714 4228 0.22
1714 1848 0.2
1714 2052 0.21
1714 4231 0.22
1714 3100 0.16
1715 3101 0.2
1715 3103 0.2
1715 3473 0.23
1715 2031 0.19
1715 2895 0.16
1715 4133 0.22
1716 3102 0.18
1716 2483 0.2
1716 1859 0.21
1716 2057 0.16
1716 3104 0.19
1716 3143 0.16
1717 3739 0.2
1717 2038 0.16
1717 3113 0.21
1717 3142 0.2
1717 3145 0.2
1718 2760 0.29
3133 1718 0.79
2046 1718 0.8
1718 1843 0.2
1718 4174 0.2
1848 1719 0.8100000000000001
1719 2052 0.2
1719 2693 0.16
1720 3110 0.17
2057 1721 0.8
1859 1721 0.74
1721 1942 0.19
1722 2063 0.22
1723 1876 0.22
1723 1866 0.23
1723 3144 0.19
1723 3115 0.21
1724 2072 0.14
1724 2537 0.22
1724 3147 0.21
1724 4194 0.15
1725 2813 0.2
1725 2847 0.19
1725 2910 0.19
1725 1872 0.16
1725 2911 0.15
1725 3151 0.17
1726 3117 0.19
1726 2542 0.22
1726 2850 0.22
1726 3118 0.17
1726 2814 0.16
3214 1727 0.8200000000000001
1727 3119 0.21
1729 1886 0.21
2571 1729 0.8100000000000001
1729 2847 0.19
2910 1729 0.8100000000000001
1729 3120 0.18
1730 2690 0.17
1730 1889 0.21
1730 3649 0.13
1761 1731 0.8
1732 3238 0.23
1732 2147 0.23
1734 2405 0.5
1734 4199 0.23
3023 1735 0.78
3387 1735 0.5
1735 1763 0.5
1735 3177 0.18
1735 2290 0.22
3388 1736 0.5
1736 2163 0.18
1737 3222 0.22
1737 2406 0.5
3389 1737 0.5
1737 1894 0.2
1737 2238 0.18
1737 3124 0.17
1737 3226 0.21
2407 1738 0.5
1738 1896 0.22
2923 1739 0.77
3178 1739 0.8
1765 1739 0.5
1739 2155 0.23
1739 2246 0.22
1739 3067 0.21
1740 2296 0.21
1740 2947 0.22
1740 3196 0.18
1740 3228 0.19
1740 3229 0.17
2409 1741 0.5
1741 1766 0.5
1741 3058 0.2
1741 3059 0.19
1741 3153 0.19
1741 3154 0.17
3390 1742 0.5
1742 3032 0.2
1742 3230 0.18
1743 2299 0.19
1743 2410 0.5
1743 2959 0.19
1744 2925 0.2
3034 1744 0.77
1744 3183 0.18
3393 1744 0.5
1744 3233 0.2
1744 3194 0.22
1744 3185 0.21
1744 2337 0.14
2255 1745 0.8200000000000001
3394 1745 0.5
1745 1768 0.5
3403 1746 0.5
1746 2416 0.5
1746 3235 0.21
1746 2238 0.19
1746 1894 0.21
3404 1747 0.5
1747 1772 0.5
1747 2163 0.18
1747 2247 0.17
1747 2987 0.17
1747 4395 0.22
3039 1748 0.8
3405 1748 0.5
1748 3177 0.2
2117 1749 0.8100000000000001
1773 1749 0.78
1749 3287 0.21
1749 4401 0.19
1750 2857 0.29
1750 3156 0.22
1750 3157 0.15
1750 2120 0.23
1751 2313 0.22
1751 3239 0.21
1751 2168 0.23
1752 1777 0.2
3052 1753 0.78
1753 3241 0.2
1753 3395 0.5
1753 3242 0.22
3244 1754 0.8
3396 1754 0.5
1754 2412 0.5
1754 3054 0.19
1754 3245 0.18
1754 3246 0.18
1754 3079 0.2
1755 2936 0.2
3247 1755 0.8100000000000001
3397 1755 0.5
1755 1769 0.5
3399 1756 0.5
1756 4338 0.23
1756 3164 0.23
1756 3251 0.2
1770 1757 0.5
3400 1757 0.5
1757 3059 0.21
1758 2296 0.22
1758 3196 0.19
1758 3195 0.21
1758 4099 0.19
1759 2944 0.23
3252 1759 0.8200000000000001
2414 1759 0.5
1759 2246 0.21
1760 2985 0.18
1760 2415 0.5
1760 1896 0.23
1760 3256 0.22
2401 1761 0.5
1761 2867 0.22
1761 4202 0.23
1761 3136 0.22
3374 1762 0.2
1762 2402 0.5
1762 3375 0.5
1762 3258 0.21
1762 2187 0.23
1762 3292 0.21
1762 3259 0.22
1762 3261 0.19
1763 3289 0.22
1763 3092 0.2
1764 3221 0.17
1765 2192 0.22
1765 3068 0.22
1765 3179 0.19
1766 2115 0.19
1766 3850 0.18
1766 3279 0.22
1766 3155 0.18
1766 4299 0.18
1767 2337 0.23
1767 4377 0.21
1767 2161 0.23
1768 3096 0.23
1768 3097 0.2
1769 2958 0.22
1769 3277 0.21
1770 3279 0.22
1770 4343 0.18
1770 3165 0.22
1771 3282 0.21
1771 3281 0.2
1771 3069 0.21
1772 4054 0.18
1772 3189 0.19
1772 2351 0.21
1772 4395 0.23
1773 4057 0.17
1773 3287 0.22
1773 3289 0.23
1773 3288 0.19
1773 3092 0.21
2403 1774 0.5
1774 3378 0.5
1774 2975 0.18
1774 3206 0.17
1774 3292 0.21
1774 3982 0.21
1774 3261 0.18
1774 3290 0.19
1774 3190 0.19
1775 2404 0.5
1775 2315 0.23
1775 2881 0.5
1775 2867 0.19
1778 3240 0.8
1778 4329 0.8
1778 4268 0.8
1779 3407 0.8200000000000001
1779 3383 0.8200000000000001
3316 1785 0.18
1786 3316 0.86
1787 3316 0.85
1788 3316 0.84
1793 2138 0.8
1797 3307 0.78
2375 1800 0.2
1806 3367 0.8
1814 2444 0.8
3346 1818 0.22
1818 3309 0.86
1819 3309 0.77
1832 3313 0.8300000000000001
1833 3315 0.84
1834 3314 0.8200000000000001
1834 2372 0.8200000000000001
1835 1859 0.8
3317 1842 0.18
1843 3321 0.84
3317 1844 0.18
1844 2374 0.8
1845 3321 0.8200000000000001
1846 3323 0.78
1846 2378 0.78
2377 1847 0.21
1847 2380 0.79
3330 1848 0.19
1848 1951 0.2
3324 1849 0.21
1849 3313 0.78
1852 3330 0.86
1855 3324 0.8
1856 3324 0.85
3335 1859 0.2
2057 1859 0.64
1859 3503 0.8
1859 2893 0.2
1860 3331 0.77
1862 3335 0.86
1863 3335 0.79
1866 3339 0.77
2388 1869 0.18
1874 3370 0.8300000000000001
1876 3347 0.78
1876 3339 0.78
1877 3347 0.86
1881 2393 0.84
1882 3352 0.88
3360 1883 0.18
1889 3366 0.79
1890 1979 0.8
1902 2406 0.8100000000000001
1906 2406 0.85
1918 2416 0.8
1919 3403 0.78
1919 2416 0.78
1930 3348 0.84
1930 4257 0.8
3632 1932 0.29
1974 1936 0.2
1974 1937 0.2
2664 1940 0.8
1948 2052 0.77
1950 4422 0.8
1955 2499 0.8
3646 1958 0.8
1958 3888 0.78
1959 2100 0.8
1965 2755 0.8
1972 3358 0.8
1972 3926 0.8
1975 2100 0.8
1976 2575 0.8
3594 1977 0.8
1979 2105 0.2
1979 3933 0.74
2011 3307 0.8
3315 2030 0.19
2033 2373 0.8200000000000001
2035 2373 0.8300000000000001
2043 3318 0.79
3874 2043 0.8
2043 2138 0.64
2044 2374 0.8300000000000001
3320 2046 0.2
2052 3329 0.8
3333 2055 0.19
2057 4244 0.8
2057 2706 0.2
2062 3336 0.79
3337 2063 0.22
2064 3337 0.8
2071 2390 0.8200000000000001
2081 2905 0.8
2096 3835 0.77
2100 3361 0.79
3365 2102 0.19
3368 2104 0.22
2130 3384 0.8300000000000001
2134 3391 0.8100000000000001
2138 2375 0.78
3435 2139 0.2
2146 3373 0.8200000000000001
2147 3373 0.77
2156 2408 0.8200000000000001
2161 3392 0.77
3380 2165 0.2
2165 2933 0.8
2168 3380 0.77
2179 3402 0.8
2179 2414 0.8
2187 3385 0.77
2192 2408 0.78
2192 2414 0.8
2201 3399 0.8200000000000001
2204 3398 0.84
2208 3391 0.78
2208 3398 0.8
2220 2221 0.8
2220 4329 0.8
2221 2222 0.2
2270 2570 0.8
3357 2277 0.22
2279 3357 0.79
2282 2905 0.8
3376 2284 0.2
2285 2932 0.8
2287 4206 0.2
2297 2409 0.79
2312 2313 0.8
2313 3381 0.78
2315 3381 0.8
2317 3398 0.8300000000000001
2321 3387 0.8300000000000001
2336 2411 0.78
2337 3393 0.77
2351 3404 0.79
2352 3404 0.84
2358 3395 0.8300000000000001
2359 3308 0.78
2370 2463 0.22
2371 2736 0.2
2371 2464 0.2
2371 2465 0.19
2371 2737 0.2
2742 2372 0.8
2372 2744 0.21
2373 2514 0.22
2373 2487 0.19
2373 3900 0.16
2374 2755 0.22
2374 3882 0.23
2374 3708 0.2
2374 3707 0.22
2374 4458 0.23
2375 3947 0.25
2761 2376 0.8300000000000001
2497 2376 0.8
2376 2763 0.2
2500 2377 0.79
2377 3003 0.21
2377 3004 0.17
2379 3725 0.22
3007 2380 0.6900000000000001
2380 2470 0.16
2510 2382 0.8
2382 4142 0.17
2383 2781 0.22
2782 2383 0.8100000000000001
2516 2383 0.8200000000000001
2420 2384 0.78
2788 2385 0.84
2385 2789 0.16
2385 2428 0.19
2385 3942 0.22
2387 4430 0.23
2387 4464 0.2
2387 2527 0.21
2387 2793 0.18
2389 2804 0.19
2390 2536 0.2
2390 4159 0.22
2391 2817 0.22
2391 4162 0.23
2392 2432 0.2
2392 3943 0.19
2392 2433 0.21
2393 2552 0.23
2393 3606 0.22
2393 2527 0.18
2394 4442 0.17
2394 2792 0.17
2559 2395 0.84
2395 2832 0.21
2395 2833 0.23
2395 3919 0.22
2396 2899 0.24
2397 2836 0.2
2399 2818 0.22
2402 3020 0.21
2402 3175 0.19
3042 2403 0.8100000000000001
2403 2930 0.23
2404 3293 0.22
2405 4476 0.23
2405 4277 0.19
2405 3303 0.18
2405 4475 0.19
2406 3124 0.21
2406 2584 0.23
2407 2583 0.2
2407 3281 0.2
2407 2982 0.19
2407 2984 0.23
2408 2954 0.22
2409 4044 0.19
2409 4300 0.18
2411 2995 0.2
2411 2994 0.22
2412 2942 0.23
2412 2943 0.22
2412 3243 0.17
2414 3283 0.17
2414 4492 0.21
2415 2592 0.2
2415 3281 0.2
2415 2583 0.19
2416 2584 0.2
2416 3126 0.2
2417 4534 0.22
2417 2971 0.19
2417 4552 0.74
3336 2420 0.26
2431 3425 0.7000000000000001
2435 3307 0.78
2440 3395 0.87
2441 3308 0.78
2459 3311 0.8300000000000001
3311 2460 0.17
2461 3311 0.8100000000000001
2473 3313 0.78
3314 2477 0.16
2481 3314 0.8100000000000001
2488 3338 0.8
3319 2497 0.18
2499 2673 0.2
3327 2507 0.19
2513 3331 0.77
2515 2514 0.32
2514 3334 0.79
3334 2516 0.18
2517 3334 0.86
2518 3339 0.77
2519 3339 0.78
2522 3341 0.8300000000000001
2524 3341 0.8100000000000001
2525 3341 0.8
2531 3343 0.84
2536 3344 0.8
2542 3366 0.8300000000000001
2544 3363 0.8100000000000001
3351 2547 0.19
2548 3347 0.79
3350 2552 0.23
3352 2559 0.16
2560 3356 0.79
2561 3352 0.8
3356 2561 0.18
2563 3352 0.84
2568 3362 0.8
2569 2905 0.6900000000000001
2570 4013 0.74
2831 2621 0.2
2832 2621 0.2
2846 2626 0.2
2847 2626 0.2
2643 2642 0.2
2644 2643 0.59
2658 2663 0.2
2671 3997 0.8
2675 4135 0.8
2677 2832 0.8
2695 2697 0.8
2696 3691 0.8
2696 2697 0.8
3336 2716 0.22
2716 3770 0.8
3307 2720 0.19
2721 3307 0.8
2727 3309 0.79
2734 3320 0.85
3314 2742 0.2
3315 2745 0.22
2748 3315 0.78
2755 4136 0.55
2760 3133 0.28
2762 3320 0.8
3326 2769 0.2
2772 3328 0.84
2775 3328 0.8
2778 3333 0.8
3337 2785 0.21
2786 3336 0.77
2790 3349 0.8200000000000001
2792 3340 0.78
3341 2797 0.18
2799 3342 0.8
2799 2831 0.8
2801 3342 0.77
2802 3341 0.85
2806 3355 0.79
2817 3345 0.78
2818 3364 0.78
2819 3348 0.78
3349 2820 0.2
2821 3349 0.8
2822 3349 0.8100000000000001
2823 3350 0.8
2831 3353 0.75
2836 3354 0.8
3355 2837 0.2
2843 3358 0.78
2846 3361 0.79
2848 3364 0.8200000000000001
2850 3365 0.78
2853 3377 0.8100000000000001
2858 3377 0.78
2868 3390 0.8
2880 3406 0.77
3331 2894 0.3
2916 3318 0.8200000000000001
3374 2918 0.22
2930 3379 0.77
2932 4205 0.2
2933 3960 0.59
2949 3385 0.78
2976 3018 0.8
2996 3395 0.8
3014 3367 0.78
3015 3370 0.77
3016 3369 0.8
3019 3375 0.79
3020 3375 0.79
3378 3042 0.19
3048 3381 0.8
3062 3388 0.79
3064 3387 0.8
3086 3401 0.84
3087 3402 0.8200000000000001
3090 3405 0.78
3090 3387 0.78
3092 3405 0.79
3097 3395 0.8
3108 3333 0.8
3115 3339 0.79
3348 3119 0.21
3321 3133 0.21
3372 3135 0.2
3166 3400 0.8
3175 3374 0.8100000000000001
3212 3309 0.77
3347 3214 0.18
3218 3386 0.8300000000000001
3258 3384 0.79
3262 3386 0.85
3263 3386 0.77
3280 3400 0.79
3288 3405 0.8100000000000001
3290 3406 0.8100000000000001
3303 3386 0.8200000000000001
3721 3313 0.8
3316 3419 0.21
3481 3317 0.78
3320 4174 0.2
3321 4135 0.33
4423 3324 0.77
3324 3489 0.22
3325 3725 0.22
3333 3762 0.22
3334 3505 0.2
4410 3336 0.8
3505 3338 0.79
3338 3506 0.22
3344 4159 0.22
3345 3798 0.23
3527 3351 0.78
3352 3534 0.18
3353 3912 0.25
3354 4167 0.21
3360 3923 0.2
3360 4251 0.22
3366 3649 0.13
3376 4481 0.2
3957 3379 0.73
3380 3957 0.37
3380 3406 0.2
3390 4302 0.18
3400 4344 0.17
3402 3963 0.18
3402 4098 0.22
3402 4492 0.21
3573 3927 0.8

forceimprovementnum 1

maxthreads 14

