3062

1 0.827523
2 0.864888
3 0.540894
4 0.828691
5 0.488263
6 0.586442
7 0.615405
8 0.58054
9 0.459896
10 0.595588
11 0.212329
12 0.501386
13 0.595642
14 0.382151
15 0.517322
16 0.747944
17 0.605942
18 0.25894
19 0.524065
20 0.614756
21 0.731558
22 0.621772
23 0.565203
24 0.212762
25 0.590868
26 0.603071
27 0.866201
28 0.486962
29 0.492561
30 0.56656
31 0.545465
32 0.228388
33 0.287233
34 0.181463
35 0.612643
36 0.306301
37 0.523004
38 0.703627
39 0.552155
40 0.605866
41 0.718211
42 0.499013
43 0.487056
44 0.363932
45 0.596566
46 0.71688
47 0.682107
48 0.581781
49 0.752847
50 0.637826
51 0.511549
52 0.641639
53 0.475152
54 0.846305
55 0.453094
56 0.770314
57 0.691436
58 0.476297
59 0.713515
60 0.303921
61 0.218343
62 0.619969
63 0.61555
64 0.823952
65 0.819715
66 0.534283
67 0.584581
68 0.620388
69 0.616971
70 0.680724
71 0.783749
72 0.56435
73 0.790055
74 0.337648
75 0.756735
76 0.472745
77 0.580619
78 0.776077
79 0.42618
80 0.563786
81 0.466841
82 0.701148
83 0.63417
84 0.345523
85 0.252664
86 0.65107
87 0.927329
88 0.719575
89 0.867547
90 0.758978
91 0.488476
92 0.406001
93 0.630839
94 0.649285
95 0.406462
96 0.747102
97 0.570554
98 0.515392
99 0.520708
100 0.54115
101 0.649338
102 0.479
103 0.600144
104 0.609359
105 0.508877
106 0.814638
107 0.297322
108 0.490165
109 0.593808
110 0.688519
111 0.613318
112 0.584228
113 0.746753
114 0.694226
115 0.560939
116 0.727944
117 0.65679
118 0.503878
119 0.911591
120 0.470556
121 0.53525
122 0.577773
123 0.687268
124 0.611491
125 0.392582
126 0.664609
127 0.579569
128 0.646232
129 0.576391
130 0.530821
131 0.916297
132 0.862106
133 0.610925
134 0.543113
135 0.532514
136 0.489348
137 0.574701
138 0.744687
139 0.620684
140 0.578941
141 0.492425
142 0.592544
143 0.549437
144 0.977726
145 0.816105
146 0.916179
147 0.705596
148 0.840773
149 0.789978
150 0.678372
151 0.680071
152 0.250063
153 0.586851
154 0.615608
155 0.651208
156 0.778316
157 0.587935
158 0.409042
159 0.218303
160 0.590847
161 0.840464
162 0.567021
163 0.505722
164 0.67953
165 0.617224
166 0.8138
167 0.749954
168 0.499919
169 0.380537
170 0.427863
171 0.699177
172 0.78727
173 0.641959
174 0.680586
175 0.67634
176 0.637353
177 0.772853
178 0.618966
179 0.69538
180 0.351219
181 0.826119
182 0.790466
183 0.703478
184 0.263468
185 0.676262
186 0.782185
187 0.866317
188 0.555104
189 0.852451
190 0.619577
191 0.911839
192 0.655671
193 0.899742
194 0.624919
195 0.562963
196 0.520994
197 0.60464
198 0.611301
199 0.606012
200 0.617017
201 0.503878
202 0.625315
203 0.586541
204 0.48985
205 0.877223
206 0.759374
207 0.703166
208 0.811219
209 0.866338
210 0.519136
211 0.838957
212 0.911612
213 0.60782
214 0.605362
215 0.698766
216 0.540056
217 0.818554
218 0.750815
219 0.847587
220 0.745337
221 0.768989
222 0.689835
223 0.792016
224 0.566794
225 0.605406
226 0.533075
227 0.722807
228 0.597373
229 0.608529
230 0.477391
231 0.668929
232 0.717674
233 0.682723
234 0.703271
235 0.677823
236 0.652641
237 0.596197
238 0.736769
239 0.527327
240 0.238252
241 0.578754
242 0.556978
243 0.818984
244 0.866152
245 0.580705
246 0.873559
247 0.451448
248 0.584638
249 0.355535
250 0.701205
251 0.828792
252 0.659925
253 0.698701
254 0.408903
255 0.636966
256 0.754047
257 0.716606
258 0.785718
259 0.58193
260 0.539772
261 0.662236
262 0.566978
263 0.5565
264 0.566292
265 0.58879
266 0.57371
267 0.778897
268 0.466959
269 0.672825
270 0.744684
271 0.67925
272 0.529426
273 0.65257
274 0.575109
275 0.591132
276 0.482729
277 0.606844
278 0.514372
279 0.62378
280 0.581339
281 0.752922
282 0.623113
283 0.454154
284 0.581158
285 0.613309
286 0.635465
287 0.327257
288 0.61843
289 0.630226
290 0.78051
291 0.763023
292 0.779844
293 0.943737
294 0.81787
295 0.527258
296 0.754176
297 0.70496
298 0.763068
299 0.650554
300 0.569452
301 0.670201
302 0.542563
303 0.603916
304 0.446472
305 0.592076
306 0.499797
307 0.626793
308 0.564597
309 0.444272
310 0.740629
311 0.482433
312 0.578577
313 0.579437
314 0.4751
315 0.752586
316 0.88602
317 0.354606
318 0.612918
319 0.422216
320 0.597667
321 0.688387
322 0.568143
323 0.594076
324 0.682422
325 0.485617
326 0.73862
327 0.623081
328 0.582413
329 0.61746
330 0.478868
331 0.546432
332 0.733978
333 0.466026
334 0.626926
335 0.893159
336 0.509919
337 0.432196
338 0.894231
339 0.317836
340 0.354769
341 0.454056
342 0.767779
343 0.468399
344 0.564136
345 0.843557
346 0.59733
347 0.69185
348 0.753384
349 0.798527
350 0.645482
351 0.532984
352 0.352812
353 0.824156
354 0.721602
355 0.644185
356 0.667434
357 0.625849
358 0.686639
359 0.697147
360 0.525826
361 0.299535
362 0.471346
363 0.872425
364 0.339519
365 0.459704
366 0.545329
367 0.208461
368 0.499698
369 0.447662
370 0.79568
371 0.664556
372 0.610253
373 0.466678
374 0.558475
375 0.830102
376 0.71646
377 0.500289
378 0.565779
379 0.826582
380 0.495883
381 0.538164
382 0.602879
383 0.65881
384 0.648023
385 0.600754
386 0.750418
387 0.730903
388 0.812236
389 0.780053
390 0.569324
391 0.630964
392 0.566141
393 0.592968
394 0.633914
395 0.633886
396 0.563235
397 0.647632
398 0.56017
399 0.589182
400 0.642101
401 0.580798
402 0.910539
403 0.645811
404 0.578442
405 0.554289
406 0.691541
407 0.560774
408 0.745746
409 0.635974
410 0.499137
411 0.53706
412 0.947126
413 0.65348
414 0.661018
415 0.793286
416 0.644641
417 0.604694
418 0.825317
419 0.45706
420 0.588858
421 0.602345
422 0.596309
423 0.521723
424 0.468364
425 0.61142
426 0.608535
427 0.775055
428 0.511612
429 0.609581
430 0.538774
431 0.587071
432 0.727139
433 0.469472
434 0.55446
435 0.590412
436 0.838082
437 0.366641
438 0.57084
439 0.549164
440 0.6413
441 0.480067
442 0.551556
443 0.818608
444 0.575092
445 0.704825
446 0.667686
447 0.943514
448 0.612091
449 0.629167
450 0.625622
451 0.688972
452 0.764159
453 0.47445
454 0.609104
455 0.577132
456 0.456465
457 0.675121
458 0.576278
459 0.604461
460 0.764321
461 0.607084
462 0.774667
463 0.622384
464 0.561624
465 0.700479
466 0.763919
467 0.611361
468 0.667155
469 0.464482
470 0.84267
471 0.567644
472 0.314684
473 0.590258
474 0.458221
475 0.87163
476 0.813023
477 0.744407
478 0.270057
479 0.796608
480 0.79831
481 0.813993
482 0.672569
483 0.801661
484 0.694722
485 0.603693
486 0.628444
487 0.75931
488 0.892214
489 0.861048
490 0.862083
491 0.895558
492 0.333643
493 0.608155
494 0.742973
495 0.626208
496 0.872818
497 0.799707
498 0.887403
499 0.267883
500 0.978653
501 0.685569
502 0.653255
503 0.64852
504 0.819975
505 0.606394
506 0.621557
507 0.787908
508 0.803625
509 0.818375
510 0.785454
511 0.779522
512 0.79999
513 0.660045
514 0.79434
515 0.700174
516 0.251136
517 0.806083
518 0.946658
519 0.949041
520 0.684407
521 0.807031
522 0.954796
523 0.596655
524 0.53033
525 0.639146
526 0.480176
527 0.668913
528 0.908364
529 0.801787
530 0.734629
531 0.624298
532 0.544862
533 0.785279
534 0.406602
535 0.330767
536 0.695356
537 0.689868
538 0.623364
539 0.410313
540 0.303417
541 0.732655
542 0.388012
543 0.942641
544 0.696929
545 0.338393
546 0.738284
547 0.801983
548 0.912211
549 0.793309
550 0.845747
551 0.574716
552 0.773099
553 0.750666
554 0.672102
555 0.65578
556 0.796428
557 0.510925
558 0.583114
559 0.520287
560 0.87127
561 0.344586
562 0.733795
563 0.397579
564 0.30569
565 0.638509
566 0.675908
567 0.719196
568 0.773575
569 0.713445
570 0.73923
571 0.458392
572 0.75977
573 0.655564
574 0.5926
575 0.37316
576 0.85386
577 0.606809
578 0.641928
579 0.597727
580 0.760222
581 0.879413
582 0.665202
583 0.712361
584 0.595888
585 0.631845
586 0.303716
587 0.468858
588 0.556328
589 0.79964
590 0.769554
591 0.697818
592 0.571326
593 0.443399
594 0.761652
595 0.482054
596 0.249106
597 0.387144
598 0.527259
599 0.233532
600 0.928469
601 0.768957
602 0.628924
603 0.68728
604 0.752298
605 0.442923
606 0.605209
607 0.51305
608 0.573733
609 0.547559
610 0.471674
611 0.235467
612 0.540421
613 0.459156
614 0.811739
615 0.54665
616 0.756399
617 0.86455
618 0.743342
619 0.4749
620 0.54969
621 0.644391
622 0.618138
623 0.723113
624 0.639646
625 0.686365
626 0.750348
627 0.843205
628 0.846147
629 0.605196
630 0.729982
631 0.514646
632 0.721963
633 0.419896
634 0.80617
635 0.747049
636 0.734433
637 0.692087
638 0.910814
639 0.62777
640 0.566255
641 0.340616
642 0.673082
643 0.434957
644 0.732069
645 0.548769
646 0.702919
647 0.644438
648 0.895012
649 0.591717
650 0.862672
651 0.660178
652 0.606676
653 0.37707
654 0.754849
655 0.49094
656 0.292496
657 0.683024
658 0.985146
659 0.525849
660 0.869142
661 0.867458
662 0.714236
663 0.346015
664 0.71689
665 0.675959
666 0.564641
667 0.714235
668 0.582271
669 0.421145
670 0.745291
671 0.563726
672 0.383942
673 0.432968
674 0.533264
675 0.716289
676 0.396914
677 0.489488
678 0.805605
679 0.518139
680 0.347004
681 0.473128
682 0.70506
683 0.377219
684 0.260499
685 0.545168
686 0.425502
687 0.610298
688 0.366492
689 0.510607
690 0.608944
691 0.353412
692 0.663819
693 0.7258
694 0.9512
695 0.602192
696 0.623325
697 0.792663
698 0.832269
699 0.605053
700 0.742611
701 0.805035
702 0.520509
703 0.83215
704 0.532309
705 0.256047
706 0.171912
707 0.863223
708 0.740788
709 0.834262
710 0.327844
711 0.652417
712 0.423043
713 0.374632
714 0.334616
715 0.706247
716 0.504873
717 0.493025
718 0.514388
719 0.367561
720 0.427625
721 0.513842
722 0.390795
723 0.37065
724 0.593346
725 0.389896
726 0.630234
727 0.717778
728 0.760925
729 0.742648
730 0.959775
731 0.55872
732 0.536148
733 0.257683
734 0.266038
735 0.816841
736 0.759173
737 0.719478
738 0.753528
739 0.854633
740 0.888736
741 0.700752
742 0.845569
743 0.740979
744 0.81487
745 0.372978
746 0.899368
747 0.793211
748 0.678664
749 0.841826
750 0.960769
751 0.856068
752 0.594048
753 0.696885
754 0.639569
755 0.75952
756 0.836245
757 0.6497
758 0.428784
759 0.601682
760 0.747775
761 0.752154
762 0.744928
763 0.800749
764 0.734782
765 0.630505
766 0.722996
767 0.906169
768 0.431524
769 0.542338
770 0.822937
771 0.633174
772 0.653582
773 0.740665
774 0.672507
775 0.912607
776 0.843429
777 0.701744
778 0.597653
779 0.776436
780 0.605012
781 0.73098
782 0.700689
783 0.744046
784 0.81228
785 0.801355
786 0.795281
787 0.897018
788 0.458512
789 0.756369
790 0.741314
791 0.761808
792 0.678462
793 0.734471
794 0.352926
795 0.798625
796 0.791282
797 0.626356
798 0.603431
799 0.531527
800 0.728253
801 0.632073
802 0.775785
803 0.828875
804 0.967758
805 0.68004
806 0.884471
807 0.739935
808 0.707874
809 0.622472
810 0.762928
811 0.715898
812 0.889474
813 0.515385
814 0.835697
815 0.856247
816 0.807078
817 0.707332
818 0.725989
819 0.372814
820 0.329975
821 0.375634
822 0.959773
823 0.863473
824 0.863194
825 0.875436
826 0.704332
827 0.494706
828 0.709881
829 0.424844
830 0.852703
831 0.891203
832 0.752079
833 0.364776
834 0.424127
835 0.468167
836 0.790809
837 0.847223
838 0.630266
839 0.816703
840 0.642931
841 0.895471
842 0.925409
843 0.911727
844 0.7687
845 0.808981
846 0.460277
847 0.807478
848 0.766834
849 0.750438
850 0.650577
851 0.843465
852 0.820173
853 0.753819
854 0.792376
855 0.583319
856 0.480791
857 0.741541
858 0.772425
859 0.747802
860 0.503604
861 0.698978
862 0.814427
863 0.662955
864 0.849738
865 0.655234
866 0.440603
867 0.767272
868 0.722167
869 0.842313
870 0.640025
871 0.853447
872 0.756186
873 0.454269
874 0.702017
875 0.76511
876 0.810243
877 0.668566
878 0.577628
879 0.890001
880 0.854942
881 0.793361
882 0.849658
883 0.780176
884 0.745134
885 0.807353
886 0.834096
887 0.881479
888 0.528506
889 0.75565
890 0.724824
891 0.709239
892 0.323787
893 0.73837
894 0.492561
895 0.811465
896 0.841182
897 0.269196
898 0.599744
899 0.555543
900 0.684275
901 0.275376
902 0.50533
903 0.79033
904 0.880437
905 0.759913
906 0.790474
907 0.228033
908 0.830188
909 0.463191
910 0.756726
911 0.325281
912 0.833556
913 0.896265
914 0.620638
915 0.773544
916 0.511889
917 0.573081
918 0.772249
919 0.730304
920 0.693386
921 0.746103
922 0.810474
923 0.711786
924 0.738362
925 0.795693
926 0.891576
927 0.937312
928 0.923866
929 0.578561
930 0.860011
931 0.924388
932 0.596048
933 0.966969
934 0.894867
935 0.866641
936 0.918003
937 0.688169
938 0.65913
939 0.583726
940 0.663213
941 0.817797
942 0.783476
943 0.73921
944 0.577923
945 0.573232
946 0.908639
947 0.825851
948 0.282874
949 0.618022
950 0.761222
951 0.705632
952 0.719268
953 0.576246
954 0.240029
955 0.460481
956 0.856595
957 0.882173
958 0.387579
959 0.788606
960 0.876295
961 0.762081
962 0.826832
963 0.859358
964 0.427678
965 0.711002
966 0.876984
967 0.422815
968 0.67997
969 0.5072
970 0.619663
971 0.910198
972 0.885605
973 0.326041
974 0.8378
975 0.875448
976 0.295612
977 0.6366
978 0.660512
979 0.64252
980 0.796792
981 0.658474
982 0.813896
983 0.44505
984 0.751506
985 0.70883
986 0.711678
987 0.599763
988 0.710338
989 0.859162
990 0.601986
991 0.565736
992 0.502304
993 0.691174
994 0.908228
995 0.79909
996 0.893864
997 0.599319
998 0.413994
999 0.800542
1000 0.623432
1001 0.685033
1002 0.449671
1003 0.604556
1004 0.743141
1005 0.624892
1006 0.852375
1007 0.762769
1008 0.823781
1009 0.758487
1010 0.884077
1011 0.605339
1012 0.488213
1013 0.47158
1014 0.704282
1015 0.433106
1016 0.50563
1017 0.776446
1018 0.627551
1019 0.850234
1020 0.499214
1021 0.649086
1022 0.663463
1023 0.755655
1024 0.4922
1025 0.539403
1026 0.596296
1027 0.642897
1028 0.94311
1029 0.811768
1030 0.784685
1031 0.867833
1032 0.805335
1033 0.349894
1034 0.686081
1035 0.279716
1036 0.35991
1037 0.727525
1038 0.908007
1039 0.449881
1040 0.740926
1041 0.933151
1042 0.913172
1043 0.728879
1044 0.945048
1045 0.915052
1046 0.687544
1047 0.713416
1048 0.589991
1049 0.794285
1050 0.643777
1051 0.515255
1052 0.689713
1053 0.830377
1054 0.925849
1055 0.564371
1056 0.892745
1057 0.6302
1058 0.852219
1059 0.74031
1060 0.825627
1061 0.559964
1062 0.944832
1063 0.783414
1064 0.810097
1065 0.742126
1066 0.382598
1067 0.531364
1068 0.643061
1069 0.726965
1070 0.886235
1071 0.91699
1072 0.894945
1073 0.712779
1074 0.787121
1075 0.793419
1076 0.826424
1077 0.67471
1078 0.641954
1079 0.712012
1080 0.873675
1081 0.421921
1082 0.913279
1083 0.750844
1084 0.786867
1085 0.688859
1086 0.909442
1087 0.78099
1088 0.742983
1089 0.954842
1090 0.423689
1091 0.413838
1092 0.681532
1093 0.819703
1094 0.512981
1095 0.961804
1096 0.899395
1097 0.901642
1098 0.790572
1099 0.837871
1100 0.59906
1101 0.869195
1102 0.813318
1103 0.828682
1104 0.866065
1105 0.883936
1106 0.712134
1107 0.900589
1108 0.834888
1109 0.710311
1110 0.777324
1111 0.856443
1112 0.565995
1113 0.549257
1114 0.753793
1115 0.799201
1116 0.555637
1117 0.68507
1118 0.646064
1119 0.793169
1120 0.936603
1121 0.772306
1122 0.907814
1123 0.738982
1124 0.811803
1125 0.630095
1126 0.795764
1127 0.81231
1128 0.785098
1129 0.576834
1130 0.735247
1131 0.741394
1132 0.437366
1133 0.483099
1134 0.846706
1135 0.819307
1136 0.589311
1137 0.793038
1138 0.835261
1139 0.745164
1140 0.818613
1141 0.805278
1142 0.722952
1143 0.790448
1144 0.541043
1145 0.755442
1146 0.742169
1147 0.751853
1148 0.758359
1149 0.60131
1150 0.729301
1151 0.639912
1152 0.544634
1153 0.569861
1154 0.643811
1155 0.787339
1156 0.716997
1157 0.82236
1158 0.693953
1159 0.819358
1160 0.628017
1161 0.804308
1162 0.298566
1163 0.952435
1164 0.894994
1165 0.750649
1166 0.881667
1167 0.789026
1168 0.814731
1169 0.54993
1170 0.77455
1171 0.759719
1172 0.280687
1173 0.716923
1174 0.330978
1175 0.902087
1176 0.545879
1177 0.622035
1178 0.631403
1179 0.856204
1180 0.670615
1181 0.707666
1182 0.699907
1183 0.770962
1184 0.748995
1185 0.560259
1186 0.728067
1187 0.519363
1188 0.646704
1189 0.730036
1190 0.715483
1191 0.798345
1192 0.769323
1193 0.70907
1194 0.640008
1195 0.703329
1196 0.81963
1197 0.61859
1198 0.675463
1199 0.619638
1200 0.796368
1201 0.817971
1202 0.780107
1203 0.750569
1204 0.819349
1205 0.571285
1206 0.624456
1207 0.615809
1208 0.714666
1209 0.566807
1210 0.690982
1211 0.585496
1212 0.589405
1213 0.645772
1214 0.775747
1215 0.678471
1216 0.626277
1217 0.791969
1218 0.784146
1219 0.606185
1220 0.925796
1221 0.61748
1222 0.371263
1223 0.246962
1224 0.736376
1225 0.553215
1226 0.823941
1227 0.826706
1228 0.745426
1229 0.717534
1230 0.501692
1231 0.717779
1232 0.847369
1233 0.651651
1234 0.532644
1235 0.79099
1236 0.816709
1237 0.767376
1238 0.506669
1239 0.81231
1240 0.873827
1241 0.581977
1242 0.878381
1243 0.728013
1244 0.584473
1245 0.751631
1246 0.634699
1247 0.763816
1248 0.982547
1249 0.895377
1250 0.869876
1251 0.877558
1252 0.867821
1253 0.743286
1254 0.865025
1255 0.884212
1256 0.862368
1257 0.665373
1258 0.594042
1259 0.908324
1260 0.623993
1261 0.826238
1262 0.733314
1263 0.860037
1264 0.951266
1265 0.965249
1266 0.980141
1267 0.931073
1268 0.773794
1269 0.636246
1270 0.921228
1271 0.957503
1272 0.866799
1273 0.922721
1274 0.907433
1275 0.82207
1276 0.918662
1277 0.956791
1278 0.90616
1279 0.71343
1280 0.857842
1281 0.920288
1282 0.733621
1283 0.87338
1284 0.766428
1285 0.691025
1286 0.858005
1287 0.702436
1288 0.513919
1289 0.768674
1290 0.721208
1291 0.714214
1292 0.89972
1293 0.763895
1294 0.900574
1295 0.855216
1296 0.65841
1297 0.634727
1298 0.650964
1299 0.683403
1300 0.696786
1301 0.45628
1302 0.750209
1303 0.860313
1304 0.617383
1305 0.894808
1306 0.80968
1307 0.722355
1308 0.878105
1309 0.547968
1310 0.695776
1311 0.306491
1312 0.854998
1313 0.803298
1314 0.838461
1315 0.790489
1316 0.745976
1317 0.694396
1318 0.814135
1319 0.632133
1320 0.542463
1321 0.909024
1322 0.855111
1323 0.820078
1324 0.725092
1325 0.840916
1326 0.505129
1327 0.300032
1328 0.499655
1329 0.712858
1330 0.679216
1331 0.629267
1332 0.476473
1333 0.806912
1334 0.741549
1335 0.585067
1336 0.867675
1337 0.497529
1338 0.716536
1339 0.478261
1340 0.488118
1341 0.581363
1342 0.509875
1343 0.847379
1344 0.631363
1345 0.655687
1346 0.442317
1347 0.542655
1348 0.496446
1349 0.769275
1350 0.879074
1351 0.648825
1352 0.451264
1353 0.880173
1354 0.936519
1355 0.752202
1356 0.922395
1357 0.82815
1358 0.657119
1359 0.928437
1360 0.325411
1361 0.66393
1362 0.829633
1363 0.625417
1364 0.860868
1365 0.874751
1366 0.705114
1367 0.924955
1368 0.341147
1369 0.948993
1370 0.624278
1371 0.715625
1372 0.474217
1373 0.878239
1374 0.626197
1375 0.928794
1376 0.820895
1377 0.782432
1378 0.796546
1379 0.721253
1380 0.652377
1381 0.449069
1382 0.624635
1383 0.800819
1384 0.860622
1385 0.838363
1386 0.883516
1387 0.848387
1388 0.818212
1389 0.830158
1390 0.854023
1391 0.569168
1392 0.680343
1393 0.901954
1394 0.48428
1395 0.653099
1396 0.495949
1397 0.461112
1398 0.798607
1399 0.608214
1400 0.250491
1401 0.685926
1402 0.639732
1403 0.387006
1404 0.432479
1405 0.394177
1406 0.55407
1407 0.572304
1408 0.72984
1409 0.4872
1410 0.682006
1411 0.326289
1412 0.54786
1413 0.278792
1414 0.743615
1415 0.634362
1416 0.758494
1417 0.682721
1418 0.49995
1419 0.726091
1420 0.494533
1421 0.412013
1422 0.624362
1423 0.346717
1424 0.759397
1425 0.855769
1426 0.706604
1427 0.610482
1428 0.79426
1429 0.757744
1430 0.764269
1431 0.758696
1432 0.739529
1433 0.81599
1434 0.763601
1435 0.693823
1436 0.638569
1437 0.86986
1438 0.523754
1439 0.776029
1440 0.667149
1441 0.6742
1442 0.862288
1443 0.856035
1444 0.824581
1445 0.822708
1446 0.901393
1447 0.916842
1448 0.650663
1449 0.626982
1450 0.73036
1451 0.928033
1452 0.873531
1453 0.546477
1454 0.330511
1455 0.79963
1456 0.861527
1457 0.619865
1458 0.690151
1459 0.730915
1460 0.853747
1461 0.795988
1462 0.63466
1463 0.89473
1464 0.812594
1465 0.784189
1466 0.749346
1467 0.786357
1468 0.827667
1469 0.732323
1470 0.598648
1471 0.789839
1472 0.858374
1473 0.775801
1474 0.786734
1475 0.871687
1476 0.81571
1477 0.68746
1478 0.797458
1479 0.883365
1480 0.670336
1481 0.607078
1482 0.813475
1483 0.75223
1484 0.620661
1485 0.593119
1486 0.385112
1487 0.743917
1488 0.767309
1489 0.712753
1490 0.602306
1491 0.497337
1492 0.662629
1493 0.72256
1494 0.715033
1495 0.833588
1496 0.684194
1497 0.630241
1498 0.698778
1499 0.477029
1500 0.572948
1501 0.651443
1502 0.701627
1503 0.717525
1504 0.752255
1505 0.643801
1506 0.784336
1507 0.538721
1508 0.718109
1509 0.485811
1510 0.794152
1511 0.600252
1512 0.852523
1513 0.528086
1514 0.753499
1515 0.549731
1516 0.653507
1517 0.173885
1518 0.758857
1519 0.653405
1520 0.903466
1521 0.748154
1522 0.422094
1523 0.727242
1524 0.843499
1525 0.893397
1526 0.905431
1527 0.750772
1528 0.84703
1529 0.770179
1530 0.769896
1531 0.763912
1532 0.644068
1533 0.646653
1534 0.943955
1535 0.510157
1536 0.557376
1537 0.914532
1538 0.683018
1539 0.609717
1540 0.771865
1541 0.762046
1542 0.648273
1543 0.675812
1544 0.68758
1545 0.690385
1546 0.780019
1547 0.514638
1548 0.653372
1549 0.658801
1550 0.751317
1551 0.550724
1552 0.190231
1553 0.731629
1554 0.77568
1555 0.91024
1556 0.495873
1557 0.871493
1558 0.411705
1559 0.861531
1560 0.853191
1561 0.596438
1562 0.661138
1563 0.65182
1564 0.824419
1565 0.634182
1566 0.71623
1567 0.177207
1568 0.946446
1569 0.690973
1570 0.966593
1571 0.551651
1572 0.303803
1573 0.612829
1574 0.966378
1575 0.484557
1576 0.910851
1577 0.937962
1578 0.603469
1579 0.846927
1580 0.892181
1581 0.867343
1582 0.776778
1583 0.744336
1584 0.501619
1585 0.834656
1586 0.637678
1587 0.872556
1588 0.76625
1589 0.286519
1590 0.212437
1591 0.853467
1592 0.689984
1593 0.683093
1594 0.974244
1595 0.777084
1596 0.723893
1597 0.688423
1598 0.730911
1599 0.978229
1600 0.825707
1601 0.794668
1602 0.511764
1603 0.87689
1604 0.566083
1605 0.175116
1606 0.181813
1607 0.172571
1608 0.599322
1609 0.88269
1610 0.742188
1611 0.753238
1612 0.412683
1613 0.744039
1614 0.755183
1615 0.66921
1616 0.730987
1617 0.670773
1618 0.692394
1619 0.784559
1620 0.499362
1621 0.807778
1622 0.842473
1623 0.89417
1624 0.701067
1625 0.813861
1626 0.463615
1627 0.171101
1628 0.940517
1629 0.903625
1630 0.675595
1631 0.750864
1632 0.731666
1633 0.643641
1634 0.874323
1635 0.428604
1636 0.722321
1637 0.852143
1638 0.72808
1639 0.688074
1640 0.672262
1641 0.727637
1642 0.177787
1643 0.694652
1644 0.464957
1645 0.897645
1646 0.287652
1647 0.816583
1648 0.845495
1649 0.819698
1650 0.747902
1651 0.541099
1652 0.711105
1653 0.834369
1654 0.517212
1655 0.765444
1656 0.620459
1657 0.874911
1658 0.832796
1659 0.669594
1660 0.622556
1661 0.521762
1662 0.910613
1663 0.656753
1664 0.643392
1665 0.670453
1666 0.968724
1667 0.809608
1668 0.920598
1669 0.71644
1670 0.877772
1671 0.536356
1672 0.673661
1673 0.899756
1674 0.580179
1675 0.651699
1676 0.327539
1677 0.559807
1678 0.738297
1679 0.873492
1680 0.770964
1681 0.976838
1682 0.241874
1683 0.182211
1684 0.185912
1685 0.52835
1686 0.593329
1687 0.558913
1688 0.396106
1689 0.474772
1690 0.593722
1691 0.952397
1692 0.165266
1693 0.666293
1694 0.574106
1695 0.715857
1696 0.89556
1697 0.64101
1698 0.86756
1699 0.808593
1700 0.381072
1701 0.896744
1702 0.949437
1703 0.647986
1704 0.648216
1705 0.83423
1706 0.306024
1707 0.891326
1708 0.288853
1709 0.868529
1710 0.396611
1711 0.813905
1712 0.924304
1713 0.609022
1714 0.88852
1715 0.767213
1716 0.650842
1717 0.754469
1718 0.69677
1719 0.799441
1720 0.708146
1721 0.859241
1722 0.434348
1723 0.667368
1724 0.63386
1725 0.826238
1726 0.539705
1727 0.688014
1728 0.642488
1729 0.559607
1730 0.890737
1731 0.853599
1732 0.693413
1733 0.711096
1734 0.347479
1735 0.612465
1736 0.682095
1737 0.640576
1738 0.776091
1739 0.663353
1740 0.755363
1741 0.761002
1742 0.549297
1743 0.651488
1744 0.856757
1745 0.262703
1746 0.249828
1747 0.420629
1748 0.691379
1749 0.764359
1750 0.953387
1751 0.764494
1752 0.715626
1753 0.876611
1754 0.775115
1755 0.790696
1756 0.884825
1757 0.715907
1758 0.67584
1759 0.199314
1760 0.634421
1761 0.760568
1762 0.747669
1763 0.905297
1764 0.757927
1765 0.743276
1766 0.421912
1767 0.742043
1768 0.811134
1769 0.643075
1770 0.696503
1771 0.779218
1772 0.843783
1773 0.602129
1774 0.791849
1775 0.87323
1776 0.559887
1777 0.788283
1778 0.725722
1779 0.710781
1780 0.86434
1781 0.854858
1782 0.67793
1783 0.419019
1784 0.821703
1785 0.496996
1786 0.793127
1787 0.70113
1788 0.916877
1789 0.654522
1790 0.85482
1791 0.674557
1792 0.732517
1793 0.769658
1794 0.501795
1795 0.508378
1796 0.896451
1797 0.708984
1798 0.829373
1799 0.722015
1800 0.184572
1801 0.638092
1802 0.704056
1803 0.592327
1804 0.697913
1805 0.578584
1806 0.910916
1807 0.179034
1808 0.660396
1809 0.266461
1810 0.581891
1811 0.582605
1812 0.741401
1813 0.771006
1814 0.765553
1815 0.819531
1816 0.872208
1817 0.784861
1818 0.728323
1819 0.218346
1820 0.648971
1821 0.715392
1822 0.889647
1823 0.685766
1824 0.74052
1825 0.698111
1826 0.25435
1827 0.642499
1828 0.626053
1829 0.682236
1830 0.770376
1831 0.680798
1832 0.761628
1833 0.847462
1834 0.178767
1835 0.784834
1836 0.187794
1837 0.648819
1838 0.754744
1839 0.175679
1840 0.670247
1841 0.767245
1842 0.818234
1843 0.540675
1844 0.645242
1845 0.749864
1846 0.711728
1847 0.558791
1848 0.546989
1849 0.556524
1850 0.786082
1851 0.2573
1852 0.683663
1853 0.638796
1854 0.777227
1855 0.826779
1856 0.76673
1857 0.366612
1858 0.536374
1859 0.822701
1860 0.748646
1861 0.692064
1862 0.573777
1863 0.810537
1864 0.171051
1865 0.958067
1866 0.751362
1867 0.572916
1868 0.692178
1869 0.728008
1870 0.822535
1871 0.507498
1872 0.591657
1873 0.606843
1874 0.571225
1875 0.763982
1876 0.530129
1877 0.771758
1878 0.854285
1879 0.804529
1880 0.664438
1881 0.885909
1882 0.844239
1883 0.8668
1884 0.774989
1885 0.889691
1886 0.632334
1887 0.669811
1888 0.541203
1889 0.377861
1890 0.843441
1891 0.85092
1892 0.655202
1893 0.895244
1894 0.808152
1895 0.546149
1896 0.728508
1897 0.849979
1898 0.664417
1899 0.810056
1900 0.630668
1901 0.37566
1902 0.935976
1903 0.654739
1904 0.877185
1905 0.727333
1906 0.809238
1907 0.407669
1908 0.632307
1909 0.403215
1910 0.545056
1911 0.674522
1912 0.745203
1913 0.452656
1914 0.475054
1915 0.848581
1916 0.591062
1917 0.202573
1918 0.762773
1919 0.628274
1920 0.723377
1921 0.685375
1922 0.231758
1923 0.567076
1924 0.634907
1925 0.893543
1926 0.847495
1927 0.723173
1928 0.564649
1929 0.708322
1930 0.580298
1931 0.176063
1932 0.519113
1933 0.75354
1934 0.837071
1935 0.248713
1936 0.716331
1937 0.525048
1938 0.261868
1939 0.828979
1940 0.781579
1941 0.425862
1942 0.253004
1943 0.363573
1944 0.68136
1945 0.881033
1946 0.675414
1947 0.870917
1948 0.732252
1949 0.84727
1950 0.536556
1951 0.302952
1952 0.751204
1953 0.178839
1954 0.273664
1955 0.540915
1956 0.176911
1957 0.256185
1958 0.17885
1959 0.256361
1960 0.198439
1961 0.529331
1962 0.673697
1963 0.938391
1964 0.918131
1965 0.708383
1966 0.767375
1967 0.686158
1968 0.178648
1969 0.667834
1970 0.739367
1971 0.262007
1972 0.791699
1973 0.176617
1974 0.183697
1975 0.783055
1976 0.656059
1977 0.176984
1978 0.693909
1979 0.245338
1980 0.701166
1981 0.762414
1982 0.774391
1983 0.660845
1984 0.783119
1985 0.850369
1986 0.753545
1987 0.506272
1988 0.666464
1989 0.729413
1990 0.746885
1991 0.815415
1992 0.522127
1993 0.826485
1994 0.772489
1995 0.778965
1996 0.657572
1997 0.697303
1998 0.283083
1999 0.310048
2000 0.450037
2001 0.762433
2002 0.287678
2003 0.176805
2004 0.255701
2005 0.304958
2006 0.203832
2007 0.352126
2008 0.179083
2009 0.904885
2010 0.879393
2011 0.299421
2012 0.808881
2013 0.827956
2014 0.676629
2015 0.310949
2016 0.922326
2017 0.757847
2018 0.8113
2019 0.515541
2020 0.464515
2021 0.684135
2022 0.444419
2023 0.467205
2024 0.700973
2025 0.518652
2026 0.643721
2027 0.614958
2028 0.255514
2029 0.214036
2030 0.197486
2031 0.558506
2032 0.179185
2033 0.561612
2034 0.518882
2035 0.711759
2036 0.655556
2037 0.712194
2038 0.68816
2039 0.656581
2040 0.78488
2041 0.746746
2042 0.6027
2043 0.55271
2044 0.581784
2045 0.6342
2046 0.558689
2047 0.701195
2048 0.53307
2049 0.758321
2050 0.325376
2051 0.941446
2052 0.936722
2053 0.573326
2054 0.630851
2055 0.627314
2056 0.295604
2057 0.3632
2058 0.585563
2059 0.318261
2060 0.887181
2061 0.510366
2062 0.771625
2063 0.664007
2064 0.66858
2065 0.802157
2066 0.293826
2067 0.896261
2068 0.330435
2069 0.720467
2070 0.80349
2071 0.723126
2072 0.73333
2073 0.752848
2074 0.637754
2075 0.377298
2076 0.876243
2077 0.54036
2078 0.787815
2079 0.839954
2080 0.821128
2081 0.445586
2082 0.280371
2083 0.175098
2084 0.822478
2085 0.491043
2086 0.690045
2087 0.182356
2088 0.856235
2089 0.79372
2090 0.862806
2091 0.686273
2092 0.81889
2093 0.866904
2094 0.304643
2095 0.783319
2096 0.811821
2097 0.782926
2098 0.586905
2099 0.781078
2100 0.495663
2101 0.558955
2102 0.277544
2103 0.326585
2104 0.561176
2105 0.212583
2106 0.961184
2107 0.919523
2108 0.687491
2109 0.930042
2110 0.429324
2111 0.716604
2112 0.439491
2113 0.409287
2114 0.719925
2115 0.75214
2116 0.759061
2117 0.680119
2118 0.689228
2119 0.583223
2120 0.539187
2121 0.790833
2122 0.904768
2123 0.788449
2124 0.599224
2125 0.848883
2126 0.774248
2127 0.784586
2128 0.643884
2129 0.820246
2130 0.626723
2131 0.32616
2132 0.495026
2133 0.51046
2134 0.754254
2135 0.653259
2136 0.642496
2137 0.688605
2138 0.889472
2139 0.607473
2140 0.821558
2141 0.615521
2142 0.708285
2143 0.499438
2144 0.19804
2145 0.179189
2146 0.179681
2147 0.607691
2148 0.79771
2149 0.781943
2150 0.708672
2151 0.804398
2152 0.932982
2153 0.832821
2154 0.216217
2155 0.424629
2156 0.314951
2157 0.506089
2158 0.450164
2159 0.790423
2160 0.629195
2161 0.713293
2162 0.178019
2163 0.242505
2164 0.670171
2165 0.818136
2166 0.784573
2167 0.438125
2168 0.635506
2169 0.695381
2170 0.535649
2171 0.579295
2172 0.864525
2173 0.603123
2174 0.474729
2175 0.553916
2176 0.334571
2177 0.790812
2178 0.637522
2179 0.461405
2180 0.614319
2181 0.178454
2182 0.789852
2183 0.758672
2184 0.721844
2185 0.820796
2186 0.779079
2187 0.525375
2188 0.17649
2189 0.75165
2190 0.828302
2191 0.710568
2192 0.856735
2193 0.680425
2194 0.962743
2195 0.798813
2196 0.651303
2197 0.744055
2198 0.809326
2199 0.870608
2200 0.656088
2201 0.724136
2202 0.622958
2203 0.29731
2204 0.731596
2205 0.572693
2206 0.178677
2207 0.178939
2208 0.342386
2209 0.348781
2210 0.728885
2211 0.527595
2212 0.384488
2213 0.86968
2214 0.715494
2215 0.729442
2216 0.578101
2217 0.756177
2218 0.779359
2219 0.349486
2220 0.867545
2221 0.865245
2222 0.726244
2223 0.60603
2224 0.792863
2225 0.687479
2226 0.689261
2227 0.531248
2228 0.582456
2229 0.915264
2230 0.813304
2231 0.750495
2232 0.382448
2233 0.784794
2234 0.302582
2235 0.452696
2236 0.820221
2237 0.800686
2238 0.716481
2239 0.523992
2240 0.557453
2241 0.573948
2242 0.731741
2243 0.724055
2244 0.666166
2245 0.57887
2246 0.534194
2247 0.58227
2248 0.911908
2249 0.440229
2250 0.809649
2251 0.234818
2252 0.791001
2253 0.522378
2254 0.584441
2255 0.421375
2256 0.750116
2257 0.408968
2258 0.722908
2259 0.708675
2260 0.354718
2261 0.454935
2262 0.179011
2263 0.40683
2264 0.221127
2265 0.28222
2266 0.34303
2267 0.761573
2268 0.864055
2269 0.545073
2270 0.697225
2271 0.211734
2272 0.17854
2273 0.74429
2274 0.236123
2275 0.283139
2276 0.613454
2277 0.558123
2278 0.776003
2279 0.285282
2280 0.246155
2281 0.747844
2282 0.745285
2283 0.214225
2284 0.741054
2285 0.598815
2286 0.179182
2287 0.708452
2288 0.829992
2289 0.795843
2290 0.357765
2291 0.846875
2292 0.453402
2293 0.648155
2294 0.845557
2295 0.624384
2296 0.656107
2297 0.994877
2298 0.612001
2299 0.845907
2300 0.868208
2301 0.732411
2302 0.669065
2303 0.664084
2304 0.548401
2305 0.175894
2306 0.859235
2307 0.678902
2308 0.261748
2309 0.827724
2310 0.859965
2311 0.69446
2312 0.649679
2313 0.764635
2314 0.660208
2315 0.69941
2316 0.667604
2317 0.434753
2318 0.178716
2319 0.582064
2320 0.748647
2321 0.59022
2322 0.561325
2323 0.841818
2324 0.596199
2325 0.681791
2326 0.753962
2327 0.179091
2328 0.513832
2329 0.459907
2330 0.700351
2331 0.721365
2332 0.703929
2333 0.690177
2334 0.75235
2335 0.700469
2336 0.599431
2337 0.607961
2338 0.823944
2339 0.660994
2340 0.736366
2341 0.569731
2342 0.292062
2343 0.285335
2344 0.500943
2345 0.727659
2346 0.781246
2347 0.28262
2348 0.433111
2349 0.854856
2350 0.564558
2351 0.848719
2352 0.924332
2353 0.586018
2354 0.716436
2355 0.726269
2356 0.588561
2357 0.583969
2358 0.731813
2359 0.625374
2360 0.55456
2361 0.522159
2362 0.726047
2363 0.615484
2364 0.628625
2365 0.630826
2366 0.541371
2367 0.834385
2368 0.695444
2369 0.501485
2370 0.733445
2371 0.235059
2372 0.65032
2373 0.658344
2374 0.636788
2375 0.681518
2376 0.491847
2377 0.857499
2378 0.377019
2379 0.574619
2380 0.666849
2381 0.661888
2382 0.778078
2383 0.871356
2384 0.733705
2385 0.732635
2386 0.77224
2387 0.200254
2388 0.448097
2389 0.838503
2390 0.800687
2391 0.73434
2392 0.64735
2393 0.458133
2394 0.274579
2395 0.632106
2396 0.69982
2397 0.533053
2398 0.278537
2399 0.297932
2400 0.897356
2401 0.173935
2402 0.728331
2403 0.174636
2404 0.740571
2405 0.612626
2406 0.854057
2407 0.249694
2408 0.875692
2409 0.492508
2410 0.247141
2411 0.858862
2412 0.77004
2413 0.685088
2414 0.679648
2415 0.731125
2416 0.902955
2417 0.857598
2418 0.936841
2419 0.202866
2420 0.51931
2421 0.932858
2422 0.929898
2423 0.900707
2424 0.77932
2425 0.242823
2426 0.462986
2427 0.9269
2428 0.78133
2429 0.951123
2430 0.278163
2431 0.296451
2432 0.502199
2433 0.425773
2434 0.282334
2435 0.293144
2436 0.17431
2437 0.17693
2438 0.243967
2439 0.241007
2440 0.127812
2441 0.299721
2442 0.192291
2443 0.574426
2444 0.239425
2445 0.789716
2446 0.93233
2447 0.868593
2448 0.227956
2449 0.854479
2450 0.846814
2451 0.837068
2452 0.782423
2453 0.655539
2454 0.275315
2455 0.673951
2456 0.607667
2457 0.829843
2458 0.65787
2459 0.679156
2460 0.217387
2461 0.909808
2462 0.730698
2463 0.804178
2464 0.897224
2465 0.247221
2466 0.762486
2467 0.742005
2468 0.916363
2469 0.84487
2470 0.605711
2471 0.958228
2472 0.206634
2473 0.841465
2474 0.845493
2475 0.815472
2476 0.565338
2477 0.222611
2478 0.250691
2479 0.682165
2480 0.895871
2481 0.755499
2482 0.660243
2483 0.63442
2484 0.295748
2485 0.601363
2486 0.881527
2487 0.915976
2488 0.702208
2489 0.677485
2490 0.880004
2491 0.630303
2492 0.842094
2493 0.861262
2494 0.581077
2495 0.878375
2496 0.277641
2497 0.357542
2498 0.6081
2499 0.152446
2500 0.255982
2501 0.297445
2502 0.741624
2503 0.152779
2504 0.799844
2505 0.596087
2506 0.269886
2507 0.71097
2508 0.158885
2509 0.24859
2510 0.732154
2511 0.657582
2512 0.682042
2513 0.749981
2514 0.598321
2515 0.829103
2516 0.71548
2517 0.551525
2518 0.712868
2519 0.894194
2520 0.802348
2521 0.821934
2522 0.771043
2523 0.519956
2524 0.710206
2525 0.969562
2526 0.803023
2527 0.867842
2528 0.234894
2529 0.583121
2530 0.853119
2531 0.713845
2532 0.607666
2533 0.910863
2534 0.785794
2535 0.733947
2536 0.753131
2537 0.620114
2538 0.657341
2539 0.773782
2540 0.608846
2541 0.711606
2542 0.730414
2543 0.763353
2544 0.820548
2545 0.29688
2546 0.83856
2547 0.863944
2548 0.697402
2549 0.29517
2550 0.772172
2551 0.751231
2552 0.672166
2553 0.744926
2554 0.760118
2555 0.77495
2556 0.263764
2557 0.790729
2558 0.258512
2559 0.8139
2560 0.302839
2561 0.670167
2562 0.708703
2563 0.699905
2564 0.951755
2565 0.842794
2566 0.650542
2567 0.582934
2568 0.531002
2569 0.707708
2570 0.826365
2571 0.630928
2572 0.885895
2573 0.928086
2574 0.630101
2575 0.710196
2576 0.790308
2577 0.699455
2578 0.928529
2579 0.820695
2580 0.67708
2581 0.481569
2582 0.728677
2583 0.799834
2584 0.897919
2585 0.93818
2586 0.739493
2587 0.960169
2588 0.799632
2589 0.785663
2590 0.567275
2591 0.542892
2592 0.648448
2593 0.802209
2594 0.609974
2595 0.48056
2596 0.718042
2597 0.800721
2598 0.823337
2599 0.720186
2600 0.707839
2601 0.70049
2602 0.754246
2603 0.813145
2604 0.925293
2605 0.744594
2606 0.76856
2607 0.80793
2608 0.779022
2609 0.796264
2610 0.237526
2611 0.685533
2612 0.715593
2613 0.535391
2614 0.611034
2615 0.197999
2616 0.547393
2617 0.695597
2618 0.870558
2619 0.624116
2620 0.852045
2621 0.943582
2622 0.709767
2623 0.716822
2624 0.74961
2625 0.714341
2626 0.750864
2627 0.760716
2628 0.868302
2629 0.913193
2630 0.478588
2631 0.51893
2632 0.463412
2633 0.700903
2634 0.478191
2635 0.496694
2636 0.640613
2637 0.864996
2638 0.764623
2639 0.883181
2640 0.84154
2641 0.862203
2642 0.935288
2643 0.601408
2644 0.710957
2645 0.709883
2646 0.808255
2647 0.777168
2648 0.665297
2649 0.703861
2650 0.808503
2651 0.867803
2652 0.690119
2653 0.559245
2654 0.529261
2655 0.735241
2656 0.85502
2657 0.725271
2658 0.692264
2659 0.73395
2660 0.665962
2661 0.436665
2662 0.453129
2663 0.688866
2664 0.704078
2665 0.742534
2666 0.852383
2667 0.917074
2668 0.50239
2669 0.588001
2670 0.705064
2671 0.471168
2672 0.612297
2673 0.864396
2674 0.799009
2675 0.842104
2676 0.531805
2677 0.903579
2678 0.534235
2679 0.707667
2680 0.176879
2681 0.706717
2682 0.707969
2683 0.172303
2684 0.805804
2685 0.301016
2686 0.478145
2687 0.719172
2688 0.608559
2689 0.295866
2690 0.292402
2691 0.728947
2692 0.267025
2693 0.832774
2694 0.792776
2695 0.745806
2696 0.687973
2697 0.610115
2698 0.680492
2699 0.678931
2700 0.769954
2701 0.599159
2702 0.680063
2703 0.514087
2704 0.741751
2705 0.624674
2706 0.971535
2707 0.603946
2708 0.576682
2709 0.306673
2710 0.357048
2711 0.552749
2712 0.926469
2713 0.263665
2714 0.777069
2715 0.791368
2716 0.798712
2717 0.852891
2718 0.520276
2719 0.929387
2720 0.817235
2721 0.413028
2722 0.627783
2723 0.923573
2724 0.547126
2725 0.630974
2726 0.60637
2727 0.774569
2728 0.931394
2729 0.683989
2730 0.615075
2731 0.967859
2732 0.632442
2733 0.72124
2734 0.654676
2735 0.608651
2736 0.876369
2737 0.746243
2738 0.851852
2739 0.576117
2740 0.503259
2741 0.774703
2742 0.72061
2743 0.539288
2744 0.747726
2745 0.579164
2746 0.507423
2747 0.424973
2748 0.444046
2749 0.600818
2750 0.51543
2751 0.683507
2752 0.460831
2753 0.565667
2754 0.631655
2755 0.661274
2756 0.755415
2757 0.601991
2758 0.718439
2759 0.763858
2760 0.663266
2761 0.852237
2762 0.587936
2763 0.817902
2764 0.82729
2765 0.759492
2766 0.700968
2767 0.701468
2768 0.595769
2769 0.751213
2770 0.729566
2771 0.7403
2772 0.869325
2773 0.637185
2774 0.897525
2775 0.655654
2776 0.665368
2777 0.874113
2778 0.636589
2779 0.807495
2780 0.843082
2781 0.808042
2782 0.727719
2783 0.648644
2784 0.668445
2785 0.590575
2786 0.659735
2787 0.430146
2788 0.616468
2789 0.574959
2790 0.581443
2791 0.89658
2792 0.685392
2793 0.54956
2794 0.780989
2795 0.632218
2796 0.226284
2797 0.295137
2798 0.305496
2799 0.432173
2800 0.699331
2801 0.82236
2802 0.681734
2803 0.210102
2804 0.300254
2805 0.544699
2806 0.958113
2807 0.646781
2808 0.460176
2809 0.301632
2810 0.227121
2811 0.306796
2812 0.769784
2813 0.602324
2814 0.815727
2815 0.674934
2816 0.902348
2817 0.827587
2818 0.810951
2819 0.765466
2820 0.423307
2821 0.708812
2822 0.758158
2823 0.79819
2824 0.75628
2825 0.859919
2826 0.732817
2827 0.671922
2828 0.704928
2829 0.868124
2830 0.412686
2831 0.422199
2832 0.890221
2833 0.728408
2834 0.663862
2835 0.687313
2836 0.659321
2837 0.749591
2838 0.71791
2839 0.950885
2840 0.652765
2841 0.853313
2842 0.86836
2843 0.89151
2844 0.789972
2845 0.828978
2846 0.876345
2847 0.775771
2848 0.897116
2849 0.782102
2850 0.82544
2851 0.504744
2852 0.793395
2853 0.891577
2854 0.727234
2855 0.770515
2856 0.721087
2857 0.881673
2858 0.936737
2859 0.767737
2860 0.925725
2861 0.856085
2862 0.905577
2863 0.835841
2864 0.735002
2865 0.60491
2866 0.799546
2867 0.744657
2868 0.738346
2869 0.932353
2870 0.724825
2871 0.690725
2872 0.716463
2873 0.802797
2874 0.832131
2875 0.600892
2876 0.718947
2877 0.737545
2878 0.633085
2879 0.784595
2880 0.902882
2881 0.79102
2882 0.924392
2883 0.856053
2884 0.912656
2885 0.94279
2886 0.882126
2887 0.870089
2888 0.851122
2889 0.89617
2890 0.905754
2891 0.596779
2892 0.448129
2893 0.846598
2894 0.74755
2895 0.832723
2896 0.317808
2897 0.296463
2898 0.643938
2899 0.709591
2900 0.745522
2901 0.302467
2902 0.790874
2903 0.751912
2904 0.796558
2905 0.80694
2906 0.73558
2907 0.934263
2908 0.770794
2909 0.79065
2910 0.848366
2911 0.689506
2912 0.836356
2913 0.72172
2914 0.864248
2915 0.913901
2916 0.87614
2917 0.954431
2918 0.859865
2919 0.592974
2920 0.255597
2921 0.734791
2922 0.547889
2923 0.729513
2924 0.792888
2925 0.757497
2926 0.778448
2927 0.80986
2928 0.693836
2929 0.814408
2930 0.796349
2931 0.614444
2932 0.905572
2933 0.823145
2934 0.887585
2935 0.860917
2936 0.83037
2937 0.851984
2938 0.719725
2939 0.33374
2940 0.762509
2941 0.897941
2942 0.93473
2943 0.77371
2944 0.830573
2945 0.840354
2946 0.834461
2947 0.838303
2948 0.519223
2949 0.786445
2950 0.566597
2951 0.449141
2952 0.58552
2953 0.609506
2954 0.622833
2955 0.4461
2956 0.68845
2957 0.818479
2958 0.654796
2959 0.93106
2960 0.530103
2961 0.529718
2962 0.419051
2963 0.562543
2964 0.87553
2965 0.902363
2966 0.688731
2967 0.72539
2968 0.755543
2969 0.838195
2970 0.81933
2971 0.662874
2972 0.803906
2973 0.872383
2974 0.704151
2975 0.867443
2976 0.915407
2977 0.728989
2978 0.599233
2979 0.811541
2980 0.601916
2981 0.672798
2982 0.61348
2983 0.660173
2984 0.900587
2985 0.486352
2986 0.916946
2987 0.505681
2988 0.703504
2989 0.76233
2990 0.648237
2991 0.487111
2992 0.449752
2993 0.688299
2994 0.822213
2995 0.879817
2996 0.883104
2997 0.5532
2998 0.604171
2999 0.763409
3000 0.782263
3001 0.767164
3002 0.805802
3003 0.72903
3004 0.894406
3005 0.650238
3006 0.649655
3007 0.817647
3008 0.72942
3009 0.925493
3010 0.626105
3011 0.721152
3012 0.451178
3013 0.757441
3014 0.676496
3015 0.561285
3016 0.703243
3017 0.841161
3018 0.755357
3019 0.588344
3020 0.888618
3021 0.783226
3022 0.236405
3023 0.265739
3024 0.800162
3025 0.273293
3026 0.858056
3027 0.24548
3028 0.275914
3029 0.522138
3030 0.261509
3031 0.284876
3032 0.268529
3033 0.828904
3034 0.581653
3035 0.273441
3036 0.296013
3037 0.919535
3038 0.767124
3039 0.956132
3040 0.268817
3041 0.276235
3042 0.291137
3043 0.288667
3044 0.230427
3045 0.293782
3046 0.284126
3047 0.356451
3048 0.341614
3049 0.275683
3050 0.334876
3051 0.274875
3052 0.301272
3053 0.871241
3054 0.693644
3055 0.873833
3056 0.68883
3057 0.69989
3058 0.431539
3059 0.671879
3060 0.640041
3061 0.642299
3062 0.536157
